<svg preserveAspectRatio="none" width="100%" height="100%" overflow="visible" style="display: block;" viewBox="0 0 20 15" fill="none" xmlns="http://www.w3.org/2000/svg">
<path id="Union" d="M14.5 3C15.8807 3 17 4.11929 17 5.5V12.5C17 13.8807 15.8807 15 14.5 15H2.5C1.11929 15 3.22128e-08 13.8807 0 12.5V5.5C3.22133e-08 4.11929 1.11929 3 2.5 3H14.5ZM2.5 4C1.67157 4 1 4.67157 1 5.5V12.5C1 13.3284 1.67157 14 2.5 14H14.5C15.3284 14 16 13.3284 16 12.5V5.5C16 4.67157 15.3284 4 14.5 4H2.5ZM17.7559 0.0126953C19.0164 0.140824 20 1.20566 20 2.5V12.5C20 12.7761 19.7761 13 19.5 13C19.2239 13 19 12.7761 19 12.5V2.5C19 1.72334 18.4097 1.08461 17.6533 1.00781L17.5 1H3C2.72386 1 2.5 0.776142 2.5 0.5C2.5 0.223858 2.72386 0 3 0H17.5L17.7559 0.0126953ZM8.5 6C8.77614 6 9 6.22386 9 6.5V8.5H11C11.2761 8.5 11.5 8.72386 11.5 9C11.5 9.27614 11.2761 9.5 11 9.5H9V11.5C9 11.7761 8.77614 12 8.5 12C8.22386 12 8 11.7761 8 11.5V9.5H6C5.72386 9.5 5.5 9.27614 5.5 9C5.5 8.72386 5.72386 8.5 6 8.5H8V6.5C8 6.22386 8.22386 6 8.5 6Z" fill="var(--fill-0, #ED7102)"/>
</svg>
