<svg preserveAspectRatio="none" width="100%" height="100%" overflow="visible" style="display: block;" viewBox="0 0 18 13" fill="none" xmlns="http://www.w3.org/2000/svg">
<path id="Union" d="M0.5 7.71387C0.776003 7.71387 0.999774 7.93792 1 8.21387V10.5C1 11.3284 1.67157 12 2.5 12H4.35742C4.63344 12.0002 4.85742 12.224 4.85742 12.5C4.85742 12.776 4.63344 12.9998 4.35742 13H2.5C1.11929 13 3.22128e-08 11.8807 0 10.5V8.21387C0.000226011 7.93792 0.223997 7.71387 0.5 7.71387ZM10.8574 12C11.1334 12.0002 11.3574 12.224 11.3574 12.5C11.3574 12.776 11.1334 12.9998 10.8574 13H7.14258C6.86656 12.9998 6.64258 12.776 6.64258 12.5C6.64258 12.224 6.86656 12.0002 7.14258 12H10.8574ZM17.5 7.71387C17.776 7.71387 17.9998 7.93792 18 8.21387V10.5C18 11.8807 16.8807 13 15.5 13H13.6426C13.3666 12.9998 13.1426 12.776 13.1426 12.5C13.1426 12.224 13.3666 12.0002 13.6426 12H15.5C16.3284 12 17 11.3284 17 10.5V8.21387C17.0002 7.93792 17.224 7.71387 17.5 7.71387ZM4.35742 0C4.63344 0.000150779 4.85742 0.223951 4.85742 0.5C4.85742 0.776049 4.63344 0.999849 4.35742 1H2.5C1.67157 1 1 1.67157 1 2.5V4.78613L0.990234 4.88672C0.943553 5.11449 0.741571 5.28613 0.5 5.28613C0.258429 5.28613 0.0564466 5.11449 0.00976562 4.88672L0 4.78613V2.5C1.28853e-07 1.11929 1.11929 4.0266e-09 2.5 0H4.35742ZM15.5 0C16.8807 0 18 1.11929 18 2.5V4.78613C17.9998 5.06208 17.776 5.28613 17.5 5.28613C17.224 5.28613 17.0002 5.06208 17 4.78613V2.5C17 1.67157 16.3284 1 15.5 1H13.6426C13.3666 0.99985 13.1426 0.77605 13.1426 0.5C13.1426 0.22395 13.3666 0.000150429 13.6426 0H15.5ZM5.07129 3C5.34743 3 5.57129 3.22386 5.57129 3.5C5.57129 3.77614 5.34743 4 5.07129 4H3.5C3.22386 4 3 3.77614 3 3.5C3 3.22386 3.22386 3 3.5 3H5.07129ZM10.5713 3C10.8474 3 11.0713 3.22386 11.0713 3.5C11.0713 3.77614 10.8474 4 10.5713 4H7.42871C7.15257 4 6.92871 3.77614 6.92871 3.5C6.92871 3.22386 7.15257 3 7.42871 3H10.5713ZM14.5 3C14.7761 3 15 3.22386 15 3.5C15 3.77614 14.7761 4 14.5 4H12.9287C12.6526 4 12.4287 3.77614 12.4287 3.5C12.4287 3.22386 12.6526 3 12.9287 3H14.5ZM10.8574 0C11.1334 0.000150749 11.3574 0.223951 11.3574 0.5C11.3574 0.776049 11.1334 0.999849 10.8574 1H7.14258C6.86656 0.999849 6.64258 0.776049 6.64258 0.5C6.64258 0.223951 6.86656 0.000150817 7.14258 0H10.8574Z" fill="var(--fill-0, #ED7102)"/>
</svg>
