<svg preserveAspectRatio="none" width="100%" height="100%" overflow="visible" style="display: block;" viewBox="0 0 64 40" fill="none" xmlns="http://www.w3.org/2000/svg">
<g id="Card_art">
<path id="Card background colour" d="M0 3.22148C0 1.4423 1.45697 0 3.25424 0H60.7458C62.543 0 64 1.4423 64 3.22148V36.7785C64 38.5577 62.543 40 60.7458 40H3.25424C1.45697 40 0 38.5577 0 36.7785V3.22148Z" fill="var(--fill-0, black)"/>
<g id="Logo Container">
<path id="re:" fill-rule="evenodd" clip-rule="evenodd" d="M13.0518 6.52886C12.9856 6.52886 12.9314 6.58015 12.9314 6.64329V7.61662C12.9314 7.67976 12.9856 7.73154 13.0518 7.73154H14.0296C14.0958 7.73154 14.1497 7.67976 14.1497 7.61662V6.64329C14.1497 6.58015 14.0958 6.52886 14.0296 6.52886H13.0518ZM13.0518 9.02013C12.9856 9.02013 12.9314 9.07165 12.9314 9.13435V10.1084C12.9314 10.1713 12.9856 10.2228 13.0518 10.2228H14.0296C14.0958 10.2228 14.1497 10.1713 14.1497 10.1084V9.13435C14.1497 9.07165 14.0958 9.02013 14.0296 9.02013H13.0518ZM12.3527 9.6674C12.3986 9.70478 12.3981 9.76644 12.3518 9.80377C12.3518 9.80377 11.7319 10.7383 10.315 10.7383C9.12016 10.7383 7.97083 9.99845 7.97083 8.35772C7.97083 6.86017 8.95604 6.01342 10.242 6.01342C11.4458 6.01342 11.9475 6.71764 12.0388 6.85133C12.508 7.49961 12.4959 8.48257 12.4959 8.48257C12.5004 8.54191 12.4547 8.58951 12.3944 8.58951H9.23868C9.17858 8.58951 9.15448 8.62597 9.16055 8.6851C9.16055 8.6851 9.29333 9.69529 10.4244 9.69529C11.2089 9.69529 11.5476 9.16796 11.5476 9.16796C11.5833 9.11745 11.6547 9.10383 11.6909 9.13244L12.3527 9.6674ZM10.2713 6.87248C9.31638 6.87248 9.19401 7.72273 9.19401 7.72273C9.17644 7.78541 9.20838 7.81745 9.26866 7.81745H11.1827C11.2427 7.81745 11.2899 7.79134 11.2751 7.72345C11.2751 7.72345 11.1875 6.87248 10.2713 6.87248V6.87248ZM5.91759 6.11078C5.97802 6.11078 6.02847 6.15271 6.04869 6.21544C6.04869 6.21544 6.18232 6.53681 6.21138 6.60365C6.23976 6.67028 6.31133 6.62906 6.33453 6.59482C6.43472 6.44604 6.77338 6.04734 7.53941 6.01364C7.59397 6.01112 7.70975 6.02857 7.70975 6.13257V7.00136C7.70975 7.06047 7.66048 7.10986 7.60028 7.11167C7.60028 7.11167 7.06063 7.12594 6.72247 7.37603C6.25603 7.72341 6.24697 8.17781 6.24697 8.91775V10.4595C6.24697 10.5182 6.19769 10.5664 6.13699 10.5664H5.2959C5.23548 10.5664 5.18598 10.5182 5.18598 10.4595V6.21747C5.18598 6.15836 5.23548 6.11078 5.2959 6.11078H5.91759Z" fill="var(--fill-0, #F28D00)"/>
<path id="member" fill-rule="evenodd" clip-rule="evenodd" d="M47.1421 10.6524C47.1483 10.6524 47.153 10.6476 47.153 10.6421V10.0613C47.153 10.0551 47.1483 10.051 47.1421 10.051H46.9862C46.9797 10.051 46.9741 10.0563 46.9723 10.0613L46.8542 10.4784C46.852 10.4871 46.8473 10.4878 46.8445 10.4793L46.7252 10.0613C46.7228 10.0563 46.7178 10.051 46.7111 10.051H46.5549C46.5488 10.051 46.5438 10.0551 46.5438 10.0613V10.6421C46.5438 10.6476 46.5488 10.6524 46.5549 10.6524H46.6526C46.6593 10.6524 46.6625 10.6476 46.6625 10.6421L46.652 10.1789C46.652 10.1736 46.6553 10.1727 46.657 10.1779L46.791 10.6421C46.7922 10.6471 46.7984 10.6524 46.8045 10.6524H46.893C46.8989 10.6524 46.9049 10.6471 46.9066 10.6421L47.0393 10.1789C47.04 10.1745 47.0436 10.1713 47.0436 10.1789L47.0336 10.6421C47.0336 10.6476 47.0384 10.6524 47.0448 10.6524H47.1421V10.6524ZM46.3597 10.1534C46.366 10.1534 46.3698 10.1491 46.3698 10.1434V10.0615C46.3698 10.0554 46.366 10.051 46.3597 10.051H45.9448C45.9385 10.051 45.9347 10.0554 45.9347 10.0615V10.1434C45.9347 10.1491 45.9385 10.1534 45.9448 10.1534H46.0849C46.0909 10.1534 46.0952 10.1577 46.0952 10.1634V10.6421C46.0952 10.6476 46.0995 10.6524 46.1055 10.6524H46.1963C46.2021 10.6524 46.2064 10.6476 46.2064 10.6421V10.1634C46.2064 10.1577 46.2104 10.1534 46.2165 10.1534H46.3597V10.1534ZM43.2146 9.1324C43.1787 9.10385 43.1072 9.11747 43.0715 9.16798C43.0715 9.16798 42.7323 9.69525 41.948 9.69525C40.8169 9.69525 40.684 8.68512 40.684 8.68512C40.6777 8.626 40.7019 8.58954 40.7624 8.58954H43.9185C43.9785 8.58954 44.0244 8.54194 44.0197 8.4826C44.0197 8.4826 44.0316 7.49965 43.5629 6.85138C43.4717 6.71769 42.9698 6.01342 41.7656 6.01342C40.4795 6.01342 39.4947 6.86022 39.4947 8.3577C39.4947 9.99847 40.6437 10.7383 41.8386 10.7383C43.2554 10.7383 43.8753 9.80379 43.8753 9.80379C43.9224 9.7664 43.9227 9.70475 43.8767 9.66741L43.2146 9.1324ZM41.7955 6.87248C42.7115 6.87248 42.7989 7.7234 42.7989 7.7234C42.8139 7.79135 42.7668 7.81745 42.7071 7.81745H40.7926C40.7326 7.81745 40.7004 7.78536 40.7177 7.72273C40.7177 7.72273 40.8403 6.87248 41.7955 6.87248V6.87248ZM25.8093 9.1324C25.7731 9.10385 25.7017 9.11747 25.6662 9.16798C25.6662 9.16798 25.3271 9.69525 24.5429 9.69525C23.4116 9.69525 23.279 8.68512 23.279 8.68512C23.2727 8.626 23.2971 8.58954 23.3572 8.58954H26.5131C26.5731 8.58954 26.619 8.54194 26.6144 8.4826C26.6144 8.4826 26.6267 7.49965 26.1573 6.85138C26.0659 6.71769 25.5642 6.01342 24.3604 6.01342C23.0745 6.01342 22.0893 6.86022 22.0893 8.3577C22.0893 9.99847 23.2387 10.7383 24.4335 10.7383C25.8501 10.7383 26.4702 9.80379 26.4702 9.80379C26.5168 9.7664 26.517 9.70475 26.4709 9.66741L25.8093 9.1324ZM24.3896 6.87248C25.3062 6.87248 25.3935 7.7234 25.3935 7.7234C25.4086 7.79135 25.3613 7.81745 25.3013 7.81745H23.3871C23.3269 7.81745 23.2949 7.78536 23.3125 7.72273C23.3125 7.72273 23.4349 6.87248 24.3896 6.87248V6.87248ZM27.1369 10.4604C27.1369 10.5188 27.1854 10.5664 27.2454 10.5664H28.1091C28.1689 10.5664 28.2181 10.5188 28.2181 10.4604V8.71867C28.2181 8.28544 28.2269 7.86997 28.4179 7.52527C28.6087 7.19784 28.927 7.0125 29.2541 7.0125C29.6356 7.0125 29.8717 7.2421 29.9537 7.53355C29.9902 7.66612 29.9902 7.99378 29.9902 7.99378V10.4604C29.9902 10.5188 30.0389 10.5664 30.0992 10.5664H30.9621C31.0226 10.5664 31.0714 10.5188 31.0714 10.4604V8.4888C31.0714 8.10833 31.0987 7.75514 31.3077 7.42792C31.4534 7.19784 31.7348 7.0125 32.0801 7.0125C32.9072 7.0125 32.8495 7.72661 32.8495 8.02051L32.8432 10.4604C32.8432 10.5188 32.8931 10.5664 32.9525 10.5664H33.8155C33.876 10.5664 33.9249 10.5188 33.9249 10.4604V7.78166C33.9249 7.32164 33.9344 6.85314 33.5701 6.46418C33.2613 6.1368 32.8255 6.01342 32.3709 6.01342C31.7077 6.01342 31.2693 6.31119 31.0358 6.55429C30.9312 6.66258 30.9106 6.66688 30.8196 6.5471C30.5101 6.14197 30.038 6.01342 29.6538 6.01342C28.7717 6.01342 28.31 6.58374 28.31 6.58374C28.2668 6.62643 28.2167 6.58554 28.1915 6.53812L28.0261 6.2489C27.9834 6.17115 27.9508 6.14622 27.8903 6.14622H27.2454C27.1854 6.14622 27.1369 6.19364 27.1369 6.25206V10.4604ZM14.6921 10.4604C14.6921 10.5188 14.741 10.5664 14.8011 10.5664H15.6644C15.7243 10.5664 15.7735 10.5188 15.7735 10.4604V8.71867C15.7735 8.28544 15.7825 7.86997 15.9735 7.52527C16.1643 7.19784 16.4823 7.0125 16.8096 7.0125C17.191 7.0125 17.4272 7.2421 17.509 7.53355C17.5455 7.66612 17.5455 7.99378 17.5455 7.99378V10.4604C17.5455 10.5188 17.5947 10.5664 17.6545 10.5664H18.5179C18.578 10.5664 18.6269 10.5188 18.6269 10.4604V8.4888C18.6269 8.10833 18.6542 7.75514 18.8632 7.42792C19.0085 7.19784 19.2903 7.0125 19.6356 7.0125C20.4624 7.0125 20.405 7.72661 20.405 8.02051L20.3989 10.4604C20.3989 10.5188 20.4479 10.5664 20.508 10.5664H21.3713C21.4312 10.5664 21.4801 10.5188 21.4801 10.4604V7.78166C21.4801 7.32164 21.4894 6.85314 21.1258 6.46418C20.817 6.1368 20.3807 6.01342 19.9264 6.01342C19.2632 6.01342 18.8253 6.31119 18.5911 6.55429C18.4867 6.66258 18.4659 6.66688 18.3752 6.5471C18.0656 6.14197 17.5933 6.01342 17.2092 6.01342C16.3276 6.01342 15.8654 6.58374 15.8654 6.58374C15.8222 6.62643 15.7721 6.58554 15.7472 6.53812L15.5818 6.2489C15.539 6.17115 15.5062 6.14622 15.4464 6.14622H14.8011C14.741 6.14622 14.6921 6.19364 14.6921 6.25206V10.4604ZM44.7387 6.11083C44.6783 6.11083 44.6293 6.15836 44.6293 6.21751V10.4595C44.6293 10.5182 44.6783 10.5664 44.7387 10.5664H45.5798C45.6402 10.5664 45.6897 10.5182 45.6897 10.4595V8.91777C45.6897 8.17779 45.6988 7.72345 46.165 7.37601C46.5034 7.12598 47.0429 7.11171 47.0429 7.11171C47.1033 7.1099 47.153 7.06051 47.153 7.0014V6.13256C47.153 6.02862 47.0366 6.01117 46.9822 6.01364C46.216 6.04739 45.8781 6.44603 45.7774 6.59486C45.7539 6.62905 45.6823 6.67027 45.6539 6.6037C45.6251 6.53685 45.4915 6.21548 45.4915 6.21548C45.471 6.1527 45.4206 6.11083 45.3604 6.11083H44.7387ZM35.6046 4.2953C35.6651 4.2953 35.7149 4.34346 35.7149 4.40251V6.40419C35.7149 6.46324 35.7571 6.48553 35.8085 6.45438C35.8085 6.45438 36.266 6.00196 37.0472 6.00196C38.0855 6.00196 39.0595 6.93135 39.0595 8.35206C39.0595 9.80865 38.067 10.7383 36.9736 10.7383C36.4432 10.7383 36.0603 10.485 35.8129 10.2425C35.7772 10.2075 35.7099 10.1538 35.6646 10.2442L35.5233 10.5009C35.4921 10.5684 35.4582 10.6043 35.3654 10.6043H34.7321C34.6712 10.6043 34.6212 10.5561 34.6212 10.4968V4.40251C34.6212 4.34346 34.6712 4.2953 34.7321 4.2953H35.6046ZM36.8128 6.95839C36.3272 6.95839 35.7525 7.32523 35.7525 8.28342C35.7525 8.56114 35.7884 8.74914 35.8245 8.85657C36.0397 9.70738 36.7683 9.70738 36.8579 9.70738C37.6484 9.70738 37.9092 8.91034 37.9273 8.31921C37.9542 7.43266 37.3969 6.95839 36.8128 6.95839V6.95839Z" fill="var(--fill-0, white)"/>
</g>
<path id="EMVCoContactlessIndicator (Stroke)" fill-rule="evenodd" clip-rule="evenodd" d="M60.8085 5.408C60.9366 5.33116 61.1034 5.37164 61.181 5.49844C61.6061 6.1928 61.8305 6.98154 61.8305 7.78523C61.8305 8.58893 61.6061 9.37767 61.181 10.072C61.1034 10.1988 60.9366 10.2393 60.8085 10.1625C60.6804 10.0856 60.6395 9.92053 60.7172 9.79374C61.0916 9.18217 61.2881 8.4895 61.2881 7.78523C61.2881 7.08097 61.0916 6.3883 60.7172 5.77673C60.6395 5.64994 60.6804 5.48485 60.8085 5.408ZM59.8064 5.88049C59.9345 5.80364 60.1013 5.84413 60.1789 5.97092C60.5161 6.52163 60.6942 7.14741 60.6942 7.78523C60.6942 8.42306 60.5161 9.04884 60.1789 9.59955C60.1013 9.72634 59.9345 9.76683 59.8064 9.68998C59.6783 9.61314 59.6374 9.44805 59.7151 9.32126C60.0016 8.85334 60.1518 8.32363 60.1518 7.78523C60.1518 7.24684 60.0016 6.71713 59.7151 6.24921C59.6374 6.12242 59.6783 5.95733 59.8064 5.88049ZM58.851 6.31366C58.9794 6.23741 59.146 6.27867 59.223 6.40582C59.4735 6.81929 59.6058 7.28915 59.6058 7.76805C59.6058 8.24696 59.4735 8.71681 59.223 9.13028C59.146 9.25744 58.9794 9.2987 58.851 9.22244C58.7225 9.14619 58.6808 8.9813 58.7579 8.85414C58.9583 8.52323 59.0634 8.14869 59.0634 7.76805C59.0634 7.38742 58.9583 7.01288 58.7579 6.68196C58.6808 6.55481 58.7225 6.38992 58.851 6.31366ZM57.8793 6.79149C58.0024 6.70699 58.1714 6.73725 58.2567 6.85907C58.4496 7.13437 58.5537 7.45532 58.5537 7.78523C58.5537 8.11515 58.4496 8.4361 58.2567 8.7114C58.1714 8.83322 58.0024 8.86348 57.8793 8.77897C57.7563 8.69447 57.7257 8.52721 57.8111 8.40538C57.9432 8.21685 58.0114 8.00205 58.0114 7.78523C58.0114 7.56842 57.9432 7.35362 57.8111 7.16509C57.7257 7.04326 57.7563 6.876 57.8793 6.79149Z" fill="var(--fill-0, white)"/>
<g id="Master card logo">
<path id="Vector" d="M52.9465 30.1489H56.6128V36.6702H52.9465V30.1489Z" fill="var(--fill-0, #FF5F00)"/>
<path id="Vector_2" d="M53.1793 33.4096C53.1793 32.0846 53.8078 30.9094 54.7738 30.1489C54.0639 29.5959 53.1677 29.2617 52.19 29.2617C49.8739 29.2617 48 31.1167 48 33.4096C48 35.7024 49.8739 37.5574 52.19 37.5574C53.1677 37.5574 54.0639 37.2233 54.7738 36.6702C53.8078 35.9213 53.1793 34.7346 53.1793 33.4096Z" fill="var(--fill-0, #EB001B)"/>
<path id="Vector_3" d="M61.5593 33.4096C61.5593 35.7024 59.6855 37.5574 57.3693 37.5574C56.3917 37.5574 55.4955 37.2233 54.7855 36.6702C55.7631 35.9098 56.38 34.7346 56.38 33.4096C56.38 32.0846 55.7515 30.9094 54.7855 30.1489C55.4955 29.5959 56.3917 29.2617 57.3693 29.2617C59.6855 29.2617 61.5593 31.1283 61.5593 33.4096Z" fill="var(--fill-0, #F79E1B)"/>
</g>
</g>
</svg>
