<svg preserveAspectRatio="none" width="100%" height="100%" overflow="visible" style="display: block;" viewBox="0 0 13 13.0001" fill="none" xmlns="http://www.w3.org/2000/svg">
<path id="Union" d="M2.49996 8C2.7761 8 2.99996 8.22386 2.99996 8.5V9.96777L4.32906 9.48438C4.58839 9.39011 4.87513 9.52405 4.96969 9.7832C5.06406 10.0427 4.93038 10.3304 4.67086 10.4248L3.29684 10.9229L4.23629 12.2041C4.39959 12.4268 4.35155 12.74 4.12887 12.9033C3.9062 13.0664 3.5929 13.0185 3.42965 12.7959L2.49996 11.5273L1.57027 12.7959C1.40699 13.0185 1.09371 13.0665 0.871055 12.9033C0.64847 12.74 0.600411 12.4268 0.763633 12.2041L1.70211 10.9229L0.329063 10.4248C0.0696395 10.3304 -0.0640896 10.0427 0.0302347 9.7832C0.124758 9.52406 0.411548 9.39019 0.67086 9.48438L1.99996 9.96777V8.5C1.99996 8.2239 2.22388 8.00007 2.49996 8ZM10.5 8C10.7761 8 11 8.22386 11 8.5V9.96777L12.3291 9.48438C12.5884 9.39011 12.8751 9.52405 12.9697 9.7832C13.0641 10.0427 12.9304 10.3304 12.6709 10.4248L11.2968 10.9229L12.2363 12.2041C12.3996 12.4268 12.3516 12.74 12.1289 12.9033C11.9062 13.0664 11.5929 13.0185 11.4296 12.7959L10.5 11.5273L9.57027 12.7959C9.40699 13.0185 9.09371 13.0665 8.87106 12.9033C8.64847 12.74 8.60041 12.4268 8.76363 12.2041L9.70211 10.9229L8.32906 10.4248C8.06964 10.3304 7.93591 10.0427 8.03023 9.7832C8.12476 9.52406 8.41155 9.39019 8.67086 9.48438L9.99996 9.96777V8.5C9.99996 8.2239 10.2239 8.00007 10.5 8ZM2.49996 0C2.7761 0 2.99996 0.223858 2.99996 0.5V1.96777L4.32906 1.48438C4.58839 1.39011 4.87513 1.52405 4.96969 1.7832C5.06406 2.04272 4.93038 2.33043 4.67086 2.4248L3.29684 2.92285L4.23629 4.2041C4.39959 4.42678 4.35155 4.74002 4.12887 4.90332C3.9062 5.06643 3.5929 5.01851 3.42965 4.7959L2.49996 3.52734L1.57027 4.7959C1.40699 5.01848 1.09371 5.06649 0.871055 4.90332C0.64847 4.74002 0.600411 4.42675 0.763633 4.2041L1.70211 2.92285L0.329063 2.4248C0.0696395 2.3304 -0.0640896 2.04267 0.0302347 1.7832C0.124758 1.52406 0.411548 1.39019 0.67086 1.48438L1.99996 1.96777V0.5C1.99996 0.223903 2.22388 7.35273e-05 2.49996 0ZM10.5 0C10.7761 0 11 0.223858 11 0.5V1.96777L12.3291 1.48438C12.5884 1.39011 12.8751 1.52405 12.9697 1.7832C13.0641 2.04272 12.9304 2.33043 12.6709 2.4248L11.2968 2.92285L12.2363 4.2041C12.3996 4.42678 12.3516 4.74002 12.1289 4.90332C11.9062 5.06643 11.5929 5.01851 11.4296 4.7959L10.5 3.52734L9.57027 4.7959C9.40699 5.01848 9.09371 5.06649 8.87106 4.90332C8.64847 4.74002 8.60041 4.42675 8.76363 4.2041L9.70211 2.92285L8.32906 2.4248C8.06964 2.3304 7.93591 2.04267 8.03023 1.7832C8.12476 1.52406 8.41155 1.39019 8.67086 1.48438L9.99996 1.96777V0.5C9.99996 0.223903 10.2239 7.37205e-05 10.5 0Z" fill="var(--fill-0, #ED7102)"/>
</svg>
