<svg preserveAspectRatio="none" width="100%" height="100%" overflow="visible" style="display: block;" viewBox="0 0 21 15" fill="none" xmlns="http://www.w3.org/2000/svg">
<path id="Union" d="M7.5 0C11.6421 0 15 3.35786 15 7.5C15 11.6421 11.6421 15 7.5 15C3.35786 15 0 11.6421 0 7.5C0 3.35786 3.35786 0 7.5 0ZM14.5703 0.0761719C18.2052 0.596131 20.9998 3.7214 21 7.5C20.9998 11.2786 18.2053 14.4049 14.5703 14.9248C14.2973 14.9635 14.0441 14.773 14.0049 14.5C13.966 14.2268 14.1565 13.9737 14.4297 13.9346C17.5789 13.4839 19.9998 10.7738 20 7.5C19.9998 4.22622 17.5788 1.51713 14.4297 1.06641C14.1566 1.02735 13.9663 0.774009 14.0049 0.500977C14.044 0.227783 14.2971 0.0373726 14.5703 0.0761719ZM7.5 1C3.91015 1 1 3.91015 1 7.5C1 11.0899 3.91015 14 7.5 14C11.0899 14 14 11.0899 14 7.5C14 3.91015 11.0899 1 7.5 1ZM7.22461 3.58203C7.41869 3.45387 7.68265 3.47562 7.85352 3.64648L10.8535 6.64648C11.0488 6.84175 11.0488 7.15825 10.8535 7.35352C10.6583 7.54878 10.3417 7.54878 10.1465 7.35352L8 5.20703V11C8 11.2761 7.77614 11.5 7.5 11.5C7.22386 11.5 7 11.2761 7 11V5.20703L4.85352 7.35352C4.65825 7.54878 4.34175 7.54878 4.14648 7.35352C3.95122 7.15825 3.95122 6.84175 4.14648 6.64648L7.14648 3.64648L7.22461 3.58203Z" fill="var(--fill-0, #ED7102)"/>
</svg>
