<svg preserveAspectRatio="none" width="100%" height="100%" overflow="visible" style="display: block;" viewBox="0 0 16 20" fill="none" xmlns="http://www.w3.org/2000/svg">
<path id="Union" d="M12 0C14.2091 0 16 1.79086 16 4V16C16 18.2091 14.2091 20 12 20H4C1.79086 20 3.22133e-08 18.2091 0 16V4C0 1.79086 1.79086 0 4 0H12ZM8.31348 4.5498C7.8256 4.38897 7.29458 4.62433 7.08594 5.09375L5.08594 9.59375C4.94849 9.90302 4.97678 10.2611 5.16113 10.5449C5.34559 10.8288 5.6615 11 6 11H7.75293L7.02344 14.2832C6.91214 14.7845 7.19884 15.2893 7.68652 15.4502C8.17441 15.611 8.70543 15.3757 8.91406 14.9062L10.9141 10.4062C11.0515 10.097 11.0232 9.73888 10.8389 9.45508C10.6544 9.17125 10.3385 9.00001 10 9H8.24707L8.97656 5.7168C9.08785 5.21547 8.80116 4.71069 8.31348 4.5498Z" fill="var(--fill-0, #8A0AAA)"/>
</svg>
