<svg preserveAspectRatio="none" width="100%" height="100%" overflow="visible" style="display: block;" viewBox="0 0 16.5 20" fill="none" xmlns="http://www.w3.org/2000/svg">
<path id="Union" d="M9.5 0C10.8807 0 12 1.11929 12 2.5V3C12 3.27614 11.7761 3.5 11.5 3.5C11.2239 3.5 11 3.27614 11 3V2.5C11 1.67157 10.3284 1 9.5 1H8.70703L8.14648 1.56055C7.86522 1.84182 7.48371 1.99996 7.08594 2H4.91406C4.51629 1.99996 4.13478 1.84182 3.85352 1.56055L3.29297 1H2.5C1.67157 1 1 1.67157 1 2.5V17.5C1 18.3284 1.67157 19 2.5 19H6.5C6.77614 19 7 19.2239 7 19.5C7 19.7761 6.77614 20 6.5 20H2.5C1.11929 20 0 18.8807 0 17.5V2.5C7.03606e-07 1.11929 1.11929 0 2.5 0H9.5ZM12.9355 6C13.5234 6.00007 13.9999 6.4766 14 7.06445C14 7.53064 14.1851 7.9779 14.5146 8.30762L14.8535 8.64648C14.8776 8.67055 14.8989 8.69633 14.917 8.72363C15.4979 9.02412 15.9117 9.60002 15.9863 10.2793L16.1768 10.4697C16.3837 10.6767 16.5 10.9573 16.5 11.25C16.5 11.5427 16.3837 11.8233 16.1768 12.0303L16 12.207V15C16 16.0318 15.3746 16.9171 14.4824 17.2988L14.3213 17.5781C14.111 17.9424 14 18.3558 14 18.7764C13.9998 19.4521 13.4521 19.9998 12.7764 20H10.2236C9.54793 19.9998 9.0002 19.4521 9 18.7764C9 18.3558 8.88901 17.9424 8.67871 17.5781L8.5166 17.2988C7.62486 16.9169 7 16.0315 7 15V11C7 9.90359 7.70644 8.97386 8.68848 8.63672L8.8125 8.42188C9.0228 8.05763 9.13379 7.64423 9.13379 7.22363C9.13399 6.5478 9.68252 6 10.3584 6H12.9355ZM9.75098 17.5C9.91478 17.904 10 18.3375 10 18.7764C10.0002 18.8998 10.1002 18.9998 10.2236 19H12.7764C12.8998 18.9998 12.9998 18.8998 13 18.7764C13 18.3375 13.0852 17.904 13.249 17.5H9.75098ZM9.5 9.5C8.67157 9.5 8 10.1716 8 11V15C8 15.8284 8.67157 16.5 9.5 16.5H13.5C14.3284 16.5 15 15.8284 15 15V10.5C15 9.94772 14.5523 9.5 14 9.5H9.5ZM10.3584 7C10.2348 7 10.134 7.10009 10.1338 7.22363C10.1338 7.66253 10.0486 8.09598 9.88477 8.5H13.4072C13.1451 8.07066 13 7.57577 13 7.06445C12.9999 7.02889 12.9711 7.00007 12.9355 7H10.3584Z" fill="var(--fill-0, #ED7102)"/>
</svg>
