<svg preserveAspectRatio="none" width="100%" height="100%" overflow="visible" style="display: block;" viewBox="0 0 17.9139 17.5662" fill="none" xmlns="http://www.w3.org/2000/svg">
<path id="Union" d="M8.5 16.5662C8.77602 16.5662 8.9998 16.7902 9 17.0662C9 17.3424 8.77614 17.5662 8.5 17.5662H0.5C0.223858 17.5662 0 17.3424 0 17.0662C0.000203989 16.7902 0.223984 16.5662 0.5 16.5662H8.5ZM10.4209 0.439256C11.0056 -0.145115 11.9529 -0.146742 12.5391 0.436327L15.1416 3.02617C15.7299 3.61149 15.7313 4.56336 15.1445 5.15019L13.2168 7.07695L17.3535 11.2137C18.1007 11.9612 18.1008 13.1723 17.3535 13.9197C16.606 14.6672 15.394 14.6671 14.6465 13.9197L10.5107 9.78398L8.08398 12.2107C7.49717 12.7976 6.54531 12.7961 5.95996 12.2078L3.36914 9.60527C2.78652 9.01913 2.78788 8.0717 3.37207 7.48711L10.4209 0.439256ZM11.2178 9.07695L15.3535 13.2127C15.7106 13.5695 16.2895 13.5696 16.6465 13.2127C17.0032 12.8558 17.0031 12.2777 16.6465 11.9207L12.5098 7.78398L11.2178 9.07695ZM4.0791 8.19414C3.88458 8.38907 3.88484 8.70491 4.0791 8.90019L6.66797 11.5027C6.86308 11.6989 7.18133 11.6993 7.37695 11.5037L8.31348 10.5672L5.00098 7.27226L4.0791 8.19414ZM5.70801 6.56523L9.02051 9.86015L10.0752 8.80449C10.0952 8.77207 10.1184 8.74081 10.1465 8.71269L12.1465 6.71269C12.1746 6.68466 12.206 6.66079 12.2393 6.64043L12.8037 6.07695L9.5 2.77324L5.70801 6.56523ZM11.834 1.14531C11.6387 0.951031 11.3229 0.95172 11.1279 1.14629L10.207 2.06621L13.5107 5.36992L14.4375 4.44316C14.633 4.24753 14.6317 3.93024 14.4355 3.73515L11.834 1.14531Z" fill="var(--fill-0, #ED7102)"/>
</svg>
