<svg preserveAspectRatio="none" width="100%" height="100%" overflow="visible" style="display: block;" viewBox="0 0 188.832 36" fill="none" xmlns="http://www.w3.org/2000/svg">
<path id="Entercard Colour" fill-rule="evenodd" clip-rule="evenodd" d="M32.8398 27.8691L35.6712 30.7271C31.891 34.0107 26.9751 36 21.5957 36C9.6683 36 0 26.2421 0 14.2053C0 8.7768 1.97165 3.81554 5.22525 0L8.05717 2.85802C5.52112 5.93535 3.99601 9.8904 3.99601 14.2053C3.99601 24.0154 11.8757 31.9677 21.5957 31.9677C25.8712 31.9677 29.7896 30.4285 32.8398 27.8691V27.8691ZM8.04026 14.2213C8.04026 6.70066 14.081 0.604224 21.5335 0.604224C28.985 0.604224 35.0258 6.70066 35.0258 14.2213C35.0258 14.662 34.9984 15.0956 34.9577 15.5256H20.5047L16.3177 11.2996H30.5325C29.3092 7.45996 25.7444 4.67922 21.5335 4.67922C16.3118 4.67922 12.0785 8.95145 12.0785 14.2213C12.0785 19.4912 16.3118 23.7635 21.5335 23.7635C23.542 23.7635 25.4002 23.1266 26.9313 22.0492L29.813 24.9574C27.526 26.7565 24.6578 27.838 21.5335 27.838C14.081 27.838 8.04026 21.742 8.04026 14.2213V14.2213ZM170.79 6.24348V8.7211C170.409 8.69852 170.023 8.70404 169.63 8.75773C166.974 9.12258 164.962 11.1932 164.534 13.7255V23.2696H161.854V6.2219H164.534V8.66389C165.786 7.42382 167.425 6.55764 169.299 6.30069C169.803 6.23194 170.299 6.2229 170.79 6.24348V6.24348ZM77.4126 10.2221C77.6567 11.0567 77.7791 11.9665 77.7791 12.9527V23.2696H75.0555V13.2352C75.0555 11.8491 74.7527 10.7561 74.1475 9.95765C73.5424 9.15921 72.5991 8.76024 71.3196 8.76024C70.435 8.76024 69.6722 8.9128 69.0322 9.21793C68.3917 9.52255 67.8681 9.95765 67.4613 10.5217C67.0541 11.0858 66.7507 11.7548 66.5533 12.5301C66.3654 13.2648 66.2739 14.0793 66.2644 14.9616V23.2696H63.3932V6.2495H66.2644V9.09999C66.436 8.79186 66.6393 8.48925 66.9024 8.19566C67.24 7.82028 67.6413 7.48605 68.1073 7.19147C68.5722 6.89789 69.0963 6.66252 69.6781 6.48637C70.2599 6.31073 70.889 6.2219 71.5637 6.2219C72.6344 6.2219 73.5598 6.38651 74.3395 6.71572C75.1192 7.04543 75.7651 7.50362 76.2778 8.09028C76.7895 8.67744 77.1684 9.38856 77.4126 10.2221V10.2221ZM123.409 6.24348V8.7211C123.028 8.69852 122.642 8.70404 122.249 8.75773C119.593 9.12258 117.582 11.1932 117.153 13.7255V23.2696H114.474V6.2219H117.153V8.66389C118.406 7.42382 120.045 6.55764 121.918 6.30069C122.422 6.23194 122.918 6.2229 123.409 6.24348V6.24348ZM136.882 19.1836L138.856 20.6987C137.588 22.009 135.9 22.9244 133.961 23.1909C129.34 23.8247 125.083 20.5582 124.455 15.894C123.826 11.2293 127.063 6.93352 131.684 6.29918C134.349 5.93384 136.886 6.86828 138.682 8.61521L136.947 10.3667C135.675 9.14767 133.889 8.49878 132.016 8.75623C128.739 9.20588 126.443 12.2521 126.889 15.5598C127.335 18.8674 130.353 21.184 133.63 20.7333C134.895 20.5602 136.012 19.9966 136.882 19.1836V19.1836ZM155.379 17.0146C155.112 17.7553 154.721 18.4012 154.209 18.9523C153.696 19.5053 153.086 19.9394 152.376 20.2561C151.666 20.5732 150.869 20.7318 149.984 20.7318C149.099 20.7318 148.302 20.5732 147.593 20.2561C146.882 19.9394 146.271 19.5053 145.76 18.9523C145.247 18.4012 144.857 17.7553 144.589 17.0146C144.322 16.2744 144.188 15.4694 144.188 14.6012C144.188 13.7315 144.322 12.9276 144.589 12.1869C144.857 11.4466 145.247 10.8013 145.76 10.2492C146.271 9.69669 146.882 9.26159 147.593 8.94492C148.302 8.62776 149.099 8.46967 149.984 8.46967C150.869 8.46967 151.666 8.62776 152.376 8.94492C153.086 9.26159 153.696 9.69669 154.209 10.2492C154.721 10.8013 155.112 11.4466 155.379 12.1869C155.646 12.9276 155.78 13.7315 155.78 14.6012C155.78 15.4694 155.646 16.2744 155.379 17.0146V17.0146ZM155.78 8.75071H155.711C154.965 7.85842 154.099 7.16537 153.11 6.67256C152.12 6.17824 151.032 5.93183 149.844 5.93183C148.565 5.93183 147.395 6.14963 146.335 6.58373C145.276 7.01883 144.374 7.62356 143.629 8.39841C142.884 9.17376 142.303 10.0896 141.883 11.148C141.464 12.2044 141.255 13.3562 141.255 14.6012C141.255 15.8458 141.464 16.9966 141.883 18.0534C142.303 19.1118 142.878 20.0272 143.612 20.8031C144.345 21.5774 145.212 22.1831 146.213 22.6177C147.214 23.0518 148.285 23.2691 149.425 23.2691C150.892 23.2691 152.178 22.9465 153.284 22.3001C154.39 21.6542 155.199 20.8618 155.711 19.9218H155.78V23.2691H158.504V6.32829H155.78V8.75071ZM185.707 17.0146C185.44 17.7553 185.05 18.4012 184.537 18.9523C184.025 19.5053 183.414 19.9394 182.704 20.2561C181.994 20.5732 181.198 20.7318 180.312 20.7318C179.427 20.7318 178.631 20.5732 177.921 20.2561C177.21 19.9394 176.599 19.5053 176.088 18.9523C175.575 18.4012 175.186 17.7553 174.918 17.0146C174.651 16.2744 174.516 15.4694 174.516 14.6012C174.516 13.7315 174.651 12.9276 174.918 12.1869C175.186 11.4466 175.575 10.8013 176.088 10.2492C176.599 9.69669 177.21 9.26159 177.921 8.94492C178.631 8.62776 179.427 8.46967 180.312 8.46967C181.198 8.46967 181.994 8.62776 182.704 8.94492C183.414 9.26159 184.025 9.69669 184.537 10.2492C185.05 10.8013 185.44 11.4466 185.707 12.1869C185.974 12.9276 186.109 13.7315 186.109 14.6012C186.109 15.4694 185.974 16.2744 185.707 17.0146V17.0146ZM186.109 1.69373V8.75071H186.039C185.293 7.85842 184.427 7.16537 183.438 6.67256C182.448 6.17824 181.36 5.93183 180.172 5.93183C178.893 5.93183 177.723 6.14963 176.663 6.58373C175.604 7.01883 174.702 7.62356 173.957 8.39841C173.212 9.17376 172.631 10.0896 172.211 11.148C171.793 12.2044 171.584 13.3562 171.584 14.6012C171.584 15.8458 171.793 16.9966 172.211 18.0534C172.631 19.1118 173.207 20.0272 173.94 20.8031C174.674 21.5774 175.541 22.1831 176.541 22.6177C177.542 23.0518 178.613 23.2691 179.753 23.2691C181.221 23.2691 182.506 22.9465 183.612 22.3001C184.717 21.6542 185.527 20.8618 186.039 19.9218H186.109V23.2691H188.832V1.69373H186.109ZM91.7616 20.1682L91.8665 22.6704C91.4006 22.8817 90.8825 23.0343 90.3126 23.1286C89.7417 23.222 89.2007 23.2691 88.689 23.2691C87.7114 23.2691 86.9307 23.1402 86.3489 22.8817C85.7676 22.6238 85.3131 22.2599 84.9879 21.7897C84.6617 21.32 84.4464 20.7378 84.3419 20.0453C84.2365 19.3522 84.1848 18.5829 84.1848 17.7378V8.54796H80.6234V6.2224H84.1848V3.39449L86.9078 0.655412V6.2224H91.7268V8.54796H86.9078V16.9268C86.9078 17.4673 86.9198 17.9656 86.9431 18.4238C86.966 18.882 87.0595 19.282 87.2226 19.6222C87.3847 19.9635 87.6294 20.2335 87.9561 20.4327C88.2813 20.6324 88.7472 20.7318 89.3519 20.7318C89.7482 20.7318 90.1555 20.6856 90.5742 20.5913C90.9933 20.4979 91.3892 20.3564 91.7616 20.1682V20.1682ZM96.9481 12.917C97.7139 10.5137 99.9451 8.77329 102.581 8.77329C105.217 8.77329 107.449 10.5137 108.214 12.917H96.9481ZM102.581 6.2224C97.9168 6.2224 94.1356 10.0384 94.1356 14.7458C94.1356 19.4531 97.9168 23.2691 102.581 23.2691C104.537 23.2691 106.332 22.5921 107.764 21.466L105.96 19.6453C105.002 20.3198 103.838 20.7183 102.581 20.7183C99.5876 20.7183 97.1201 18.4735 96.7248 15.5623H110.984C111.009 15.2933 111.027 15.0218 111.027 14.7458C111.027 10.0384 107.245 6.2224 102.581 6.2224V6.2224ZM45.8303 12.917C46.5961 10.5137 48.8273 8.77329 51.4633 8.77329C54.0993 8.77329 56.3311 10.5137 57.0963 12.917H45.8303ZM51.4633 6.2224C46.799 6.2224 43.0183 10.0384 43.0183 14.7458C43.0183 19.4531 46.799 23.2691 51.4633 23.2691C53.4196 23.2691 55.2147 22.5921 56.6463 21.466L54.8423 19.6453C53.884 20.3198 52.7204 20.7183 51.4633 20.7183C48.4708 20.7183 46.0029 18.4735 45.6076 15.5623H59.8666C59.8915 15.2933 59.9094 15.0218 59.9094 14.7458C59.9094 10.0384 56.1277 6.2224 51.4633 6.2224V6.2224Z" fill="var(--fill-0, #1B2AA3)"/>
</svg>
