<svg preserveAspectRatio="none" width="100%" height="100%" overflow="visible" style="display: block;" viewBox="0 0 17 20.4084" fill="none" xmlns="http://www.w3.org/2000/svg">
<path id="Union" d="M7.77441 0.0744525C8.26617 -0.0484633 8.78417 -0.0185351 9.25879 0.159413L10.6758 0.690663C10.934 0.787691 11.0644 1.07587 10.9678 1.33422C10.8707 1.59257 10.5827 1.72313 10.3242 1.62621L8.90723 1.09496C8.62259 0.988351 8.31148 0.970482 8.0166 1.04418L2.13574 2.51488C1.46839 2.68194 1.00022 3.28202 1 3.96996V10.4084C1 12.769 2.11159 14.992 4 16.4084L7.59961 19.1086C8.13294 19.5086 8.86706 19.5086 9.40039 19.1086L13 16.4084C14.8884 14.992 16 12.769 16 10.4084V7.90844C16.0003 7.63251 16.224 7.40844 16.5 7.40844C16.776 7.40844 16.9997 7.63251 17 7.90844V10.4084C17 13.0838 15.7398 15.603 13.5996 17.2082L10 19.9084C9.11111 20.5751 7.88889 20.5751 7 19.9084L3.40039 17.2082C1.26018 15.603 3.74162e-08 13.0838 0 10.4084V3.96996C0.000224385 2.823 0.780797 1.82237 1.89355 1.54418L7.77441 0.0744525ZM14.8418 2.16234C14.9378 2.18155 15.0274 2.22881 15.0977 2.29906C15.1913 2.39274 15.244 2.52018 15.2441 2.65258C15.2432 3.68994 14.8299 4.68479 14.0967 5.4182L12.1328 7.38207L13.6074 11.8069L13.6602 12.011C13.7481 12.4913 13.5966 12.9906 13.2451 13.342L12.6973 13.8889C12.5945 13.9917 12.4516 14.0451 12.3066 14.0344C12.1618 14.0236 12.0289 13.9499 11.9424 13.8332L9.2793 10.2375L7.74414 11.7727L8.05859 13.344L8.08301 13.5286C8.11447 13.9599 7.9585 14.3882 7.64844 14.6985L7.31934 15.0276C7.21551 15.1313 7.07107 15.1841 6.9248 15.1721C6.77845 15.1599 6.64497 15.0836 6.55957 14.9641L4.83984 12.5569L2.43262 10.8381C2.31324 10.7528 2.23687 10.6191 2.22461 10.4729C2.21249 10.3264 2.26619 10.1813 2.37012 10.0774L2.69824 9.74926L2.83887 9.62523C3.18032 9.35991 3.62274 9.2532 4.05273 9.3391L5.62305 9.65258L7.1582 8.11742L3.56055 5.45141C3.4442 5.36496 3.37128 5.23265 3.36035 5.08812C3.34962 4.94307 3.40203 4.79937 3.50488 4.69652L4.05273 4.14965C4.45441 3.74797 5.04884 3.60672 5.58789 3.78637L10.0137 5.26195L11.9766 3.29906C12.7106 2.56521 13.7062 2.15258 14.7441 2.15258L14.8418 2.16234ZM14.1895 3.20629C13.6231 3.31608 13.0975 3.59233 12.6836 4.00609L10.502 6.18773C10.368 6.32162 10.1699 6.36871 9.99023 6.30883L5.27148 4.73559C5.0919 4.67575 4.89372 4.72273 4.75977 4.85668L4.62207 4.9934L8.21875 7.66039C8.33532 7.74686 8.40903 7.87896 8.41992 8.02367C8.43064 8.16855 8.378 8.31147 8.27539 8.4143L6.1416 10.5481C6.02343 10.6663 5.85334 10.7175 5.68945 10.6848L3.85742 10.3196C3.73678 10.2954 3.61282 10.3171 3.50879 10.3772L5.48926 11.7922L5.55176 11.845C5.57116 11.8644 5.58848 11.886 5.60449 11.9084L7.01855 13.887C7.06826 13.8008 7.09313 13.702 7.08594 13.6018L7.07812 13.5403L6.71094 11.7063C6.67826 11.5425 6.72962 11.3733 6.84766 11.2551L8.98145 9.12133C9.08423 9.01855 9.22712 8.96518 9.37207 8.97582C9.51687 8.98665 9.64981 9.06038 9.73633 9.17699L12.4004 12.7717L12.5381 12.635C12.6551 12.5179 12.7048 12.3515 12.6758 12.1916L12.6582 12.1233L11.0859 7.40551C11.0263 7.22595 11.0732 7.0276 11.207 6.89379L13.3896 4.71117C13.8033 4.29737 14.0793 3.77226 14.1895 3.20629Z" fill="var(--fill-0, #161513)"/>
</svg>
