<svg preserveAspectRatio="none" width="100%" height="100%" overflow="visible" style="display: block;" viewBox="0 0 15 18.3248" fill="none" xmlns="http://www.w3.org/2000/svg">
<path id="Union" d="M6.72949 0.121584C7.23013 -0.040528 7.76987 -0.0405279 8.27051 0.121584L14.6543 2.18897C14.8603 2.25585 15 2.4479 15 2.66455V8.91455C14.9999 11.4792 13.8419 13.9072 11.8486 15.521L9.07324 17.7681C8.15607 18.5104 6.84393 18.5104 5.92676 17.7681L3.15137 15.521C1.28275 14.0081 0.148331 11.7798 0.0136719 9.39404L0 8.91455V2.66455L0.00683594 2.58447C0.0364609 2.40178 0.165489 2.24746 0.345703 2.18897L6.72949 0.121584ZM7.96191 1.07276C7.6617 0.975607 7.3383 0.975607 7.03809 1.07276L1 3.02783V8.91455L1.01172 9.3374C1.13048 11.4427 2.13222 13.4087 3.78125 14.7437L6.55664 16.9907C7.10681 17.4358 7.89319 17.4358 8.44336 16.9907L11.2188 14.7437C12.9777 13.3197 13.9999 11.1776 14 8.91455V3.02783L7.96191 1.07276ZM10.6465 6.54444C10.8417 6.34917 11.1583 6.34917 11.3535 6.54444C11.5486 6.73971 11.5487 7.05625 11.3535 7.25147L7.35352 11.2515C7.15829 11.4465 6.84171 11.4465 6.64648 11.2515L4.14648 8.75147C3.95127 8.55625 3.95136 8.23971 4.14648 8.04444C4.34175 7.84917 4.65825 7.84917 4.85352 8.04444L7 10.1909L10.6465 6.54444Z" fill="var(--fill-0, #161513)"/>
</svg>
