<svg preserveAspectRatio="none" width="100%" height="100%" overflow="visible" style="display: block;" viewBox="0 0 16 20.2842" fill="none" xmlns="http://www.w3.org/2000/svg">
<path id="Union" d="M7.07129 0.178776C7.66727 -0.0595921 8.33273 -0.0595922 8.92871 0.178776L14.4287 2.37897C15.3776 2.75868 15.9999 3.6782 16 4.70026V10.501C15.9999 13.0831 14.8258 15.5248 12.8096 17.1378L9.56152 19.7364C8.64848 20.4668 7.35152 20.4668 6.43848 19.7364L3.19043 17.1378C1.17424 15.5248 8.25425e-05 13.0831 0 10.501V4.70026C9.36913e-05 3.6782 0.622392 2.75868 1.57129 2.37897L7.07129 0.178776ZM8.55664 1.10749C8.19922 0.96462 7.80078 0.96462 7.44336 1.10749L1.94336 3.30671C1.37394 3.53447 1.00009 4.087 1 4.70026V10.501C1.00008 12.7792 2.03554 14.9343 3.81445 16.3575L7.0625 18.9561C7.61033 19.3944 8.38967 19.3944 8.9375 18.9561L12.1855 16.3575C13.9645 14.9343 14.9999 12.7792 15 10.501V4.70026C14.9999 4.087 14.6261 3.53447 14.0566 3.30671L8.55664 1.10749ZM11.5 5.34577C12.3284 5.34577 12.9999 6.01745 13 6.84577V10.8458C13 11.6742 12.3284 12.3458 11.5 12.3458H4.5C3.72334 12.3458 3.08461 11.7555 3.00781 10.9991L3 10.8458V6.84577C3.00012 6.01745 3.67165 5.34577 4.5 5.34577H11.5ZM4.5 6.34577C4.22393 6.34577 4.00012 6.56973 4 6.84577V10.8458L4.00977 10.9464C4.05629 11.1743 4.25829 11.3458 4.5 11.3458H11.5C11.7761 11.3458 12 11.1219 12 10.8458V6.84577C11.9999 6.56973 11.7761 6.34577 11.5 6.34577H4.5ZM10 7.84577C10.2761 7.84577 10.4999 8.06973 10.5 8.34577C10.5 8.62191 10.2761 8.84577 10 8.84577H6C5.72386 8.84577 5.5 8.62191 5.5 8.34577C5.50012 8.06973 5.72393 7.84577 6 7.84577H10Z" fill="var(--fill-0, #161513)"/>
</svg>
