<svg preserveAspectRatio="none" width="100%" height="100%" overflow="visible" style="display: block;" viewBox="0 0 17 20.3642" fill="none" xmlns="http://www.w3.org/2000/svg">
<path id="Union" d="M7.62207 0.159177C8.18803 -0.053059 8.81197 -0.053059 9.37793 0.159177L15.3779 2.40918C16.3535 2.77508 16.9999 3.70803 17 4.75V10.3643C16.9999 13.0396 15.7399 15.5588 13.5996 17.1641L10 19.8643C9.11116 20.5308 7.88884 20.5308 7 19.8643L3.40039 17.1641C1.26011 15.5588 8.12662e-05 13.0396 0 10.3643V4.75C0.000106814 3.70803 0.646452 2.77508 1.62207 2.40918L7.62207 0.159177ZM9.02637 1.0957C8.68697 0.968508 8.31303 0.968508 7.97363 1.0957L1.97363 3.3457C1.38831 3.56524 1.00011 4.12487 1 4.75V10.3643C1.00008 12.7248 2.11153 14.9479 4 16.3643L7.59961 19.0645C8.13289 19.4643 8.86711 19.4643 9.40039 19.0645L13 16.3643C14.8885 14.9479 15.9999 12.7248 16 10.3643V4.75C15.9999 4.12487 15.6117 3.56524 15.0264 3.3457L9.02637 1.0957ZM8.5 3.36426C9.88071 3.36426 11 4.48354 11 5.86426V7.36426H11.5C12.3284 7.36426 13 8.03583 13 8.86426V12.8643C12.9999 13.6926 12.3283 14.3643 11.5 14.3643H5.5C4.72342 14.3643 4.08473 13.7739 4.00781 13.0176L4 12.8643V8.86426C4 8.03583 4.67157 7.36426 5.5 7.36426H6V5.86426C6 4.48354 7.11929 3.36426 8.5 3.36426ZM5.5 8.36426C5.22386 8.36426 5 8.58811 5 8.86426V12.8643L5.00977 12.9648C5.05639 13.1927 5.25837 13.3643 5.5 13.3643H11.5C11.7761 13.3643 11.9999 13.1403 12 12.8643V8.86426C12 8.58811 11.7761 8.36426 11.5 8.36426H5.5ZM9.5 11.8643H7.5V9.86426H9.5V11.8643ZM8.5 4.36426C7.67157 4.36426 7 5.03583 7 5.86426V7.36426H10V5.86426C10 5.03583 9.32843 4.36426 8.5 4.36426Z" fill="var(--fill-0, #161513)"/>
</svg>
