<svg preserveAspectRatio="none" width="100%" height="100%" overflow="visible" style="display: block;" viewBox="0 0 18 17.8303" fill="none" xmlns="http://www.w3.org/2000/svg">
<path id="Union" d="M16.5 13.8303C17.3284 13.8303 18 14.5019 18 15.3303V16.3303C17.9999 17.1586 17.3283 17.8303 16.5 17.8303H1.5C0.671665 17.8303 0.000149463 17.1586 0 16.3303V15.3303C0 14.5019 0.671573 13.8303 1.5 13.8303H16.5ZM1.5 14.8303C1.22386 14.8303 1 15.0541 1 15.3303V16.3303C1.00015 16.6063 1.22395 16.8303 1.5 16.8303H16.5C16.7761 16.8303 16.9999 16.6063 17 16.3303V15.3303C17 15.0541 16.7761 14.8303 16.5 14.8303H1.5ZM2.5 7.33028C2.77614 7.33028 3 7.55414 3 7.83028V11.8303C2.99985 12.1063 2.77605 12.3303 2.5 12.3303C2.22395 12.3303 2.00015 12.1063 2 11.8303V7.83028C2 7.55414 2.22386 7.33028 2.5 7.33028ZM5.5 7.33028C5.77614 7.33028 6 7.55414 6 7.83028V11.8303C5.99985 12.1063 5.77605 12.3303 5.5 12.3303C5.22395 12.3303 5.00015 12.1063 5 11.8303V7.83028C5 7.55414 5.22386 7.33028 5.5 7.33028ZM9 7.33028C9.27614 7.33028 9.5 7.55414 9.5 7.83028V11.8303C9.49985 12.1063 9.27605 12.3303 9 12.3303C8.72395 12.3303 8.50015 12.1063 8.5 11.8303V7.83028C8.5 7.55414 8.72386 7.33028 9 7.33028ZM12.5 7.33028C12.7761 7.33028 13 7.55414 13 7.83028V11.8303C12.9999 12.1063 12.776 12.3303 12.5 12.3303C12.224 12.3303 12.0001 12.1063 12 11.8303V7.83028C12 7.55414 12.2239 7.33028 12.5 7.33028ZM15.5 7.33028C15.7761 7.33028 16 7.55414 16 7.83028V11.8303C15.9999 12.1063 15.776 12.3303 15.5 12.3303C15.224 12.3303 15.0001 12.1063 15 11.8303V7.83028C15 7.55414 15.2239 7.33028 15.5 7.33028ZM7.73047 0.182817C8.55933 -0.0609389 9.44067 -0.0609392 10.2695 0.182817L16.9229 2.13985C17.5611 2.32761 17.9999 2.91302 18 3.57832V4.33028C17.9999 5.15858 17.3283 5.83028 16.5 5.83028H1.5C0.671665 5.83028 0.000149842 5.15858 0 4.33028V3.57832C8.39158e-05 2.91302 0.438876 2.32761 1.07715 2.13985L7.73047 0.182817ZM9.9873 1.1418C9.34275 0.952287 8.65725 0.952287 8.0127 1.1418L1.35938 3.09883C1.14669 3.16142 1.00008 3.35663 1 3.57832V4.33028C1.00015 4.60629 1.22395 4.83028 1.5 4.83028H16.5C16.776 4.83028 16.9999 4.60629 17 4.33028V3.57832C16.9999 3.35663 16.8533 3.16142 16.6406 3.09883L9.9873 1.1418Z" fill="var(--fill-0, #ED7102)"/>
</svg>
