<svg preserveAspectRatio="none" width="100%" height="100%" overflow="visible" style="display: block;" viewBox="0 0 19 20" fill="none" xmlns="http://www.w3.org/2000/svg">
<path id="Union" d="M15.1465 0.146447C15.3417 -0.0488155 15.6583 -0.0488155 15.8535 0.146447L18.8535 3.14645C19.0488 3.34171 19.0488 3.65822 18.8535 3.85348L15.8535 6.85348C15.6583 7.04874 15.3417 7.04874 15.1465 6.85348C14.9512 6.65822 14.9512 6.34171 15.1465 6.14645L17.293 3.99996H8.5C4.35786 3.99996 1 7.35783 1 11.5C1 15.6421 4.35786 19 8.5 19C12.6421 19 16 15.6421 16 11.5C16 11.2238 16.2239 11 16.5 11C16.7761 11 17 11.2238 17 11.5C17 16.1944 13.1944 20 8.5 20C3.80558 20 1.61069e-08 16.1944 0 11.5C0 6.80554 3.80558 2.99996 8.5 2.99996H17.293L15.1465 0.853478C14.9512 0.658216 14.9512 0.341709 15.1465 0.146447ZM8.14648 8.14645C8.28948 8.00345 8.50457 7.96066 8.69141 8.03805C8.87821 8.11545 9 8.29775 9 8.49996V14.5H10C10.2761 14.5 10.5 14.7238 10.5 15C10.5 15.2761 10.2761 15.5 10 15.5H7C6.72386 15.5 6.5 15.2761 6.5 15C6.5 14.7238 6.72386 14.5 7 14.5H8V9.70699L7.35352 10.3535C7.15825 10.5487 6.84175 10.5487 6.64648 10.3535C6.45122 10.1582 6.45122 9.84171 6.64648 9.64645L8.14648 8.14645Z" fill="var(--fill-0, #ED7102)"/>
</svg>
