<svg preserveAspectRatio="none" width="100%" height="100%" overflow="visible" style="display: block;" viewBox="0 0 16 16" fill="none" xmlns="http://www.w3.org/2000/svg">
<path id="Union" d="M6.5 0C6.77614 0 7 0.223858 7 0.5C7 0.776142 6.77614 1 6.5 1H2.5C1.67157 1 1 1.67157 1 2.5V13.5C1 14.3284 1.67157 15 2.5 15H13.5C14.3284 15 15 14.3284 15 13.5V9.5C15 9.22386 15.2239 9 15.5 9C15.7761 9 16 9.22386 16 9.5V13.5C16 14.8807 14.8807 16 13.5 16H2.5C1.11929 16 0 14.8807 0 13.5V2.5C0 1.11929 1.11929 0 2.5 0H6.5ZM15.5 0C15.7761 0 16 0.223858 16 0.5V6.5C16 6.77614 15.7761 7 15.5 7C15.2239 7 15 6.77614 15 6.5V1.70703L7.85352 8.85352C7.65825 9.04878 7.34175 9.04878 7.14648 8.85352C6.95122 8.65825 6.95122 8.34175 7.14648 8.14648L14.293 1H9.5C9.22386 1 9 0.776142 9 0.5C9 0.223858 9.22386 0 9.5 0H15.5Z" fill="var(--fill-0, #707070)"/>
</svg>
