<svg preserveAspectRatio="none" width="100%" height="100%" overflow="visible" style="display: block;" viewBox="0 0 20 14" fill="none" xmlns="http://www.w3.org/2000/svg">
<path id="Union" d="M17.5 0C18.8807 0 20 1.11929 20 2.5V11.5C20 12.8807 18.8807 14 17.5 14H14.5C14.2239 14 14 13.7761 14 13.5C14 13.2239 14.2239 13 14.5 13H17.5C18.3284 13 19 12.3284 19 11.5V2.5C19 1.67157 18.3284 1 17.5 1H2.5C1.67157 1 1 1.67157 1 2.5V11.5C1 12.3284 1.67157 13 2.5 13H8C8.82843 13 9.5 12.3284 9.5 11.5V7.20703L7.35352 9.35352C7.15825 9.54878 6.84175 9.54878 6.64648 9.35352C6.45122 9.15825 6.45122 8.84175 6.64648 8.64648L9.64648 5.64648L9.72461 5.58203C9.91869 5.45387 10.1827 5.47562 10.3535 5.64648L13.3535 8.64648C13.5488 8.84175 13.5488 9.15825 13.3535 9.35352C13.1583 9.54878 12.8417 9.54878 12.6465 9.35352L10.5 7.20703V11.5C10.5 12.8807 9.38071 14 8 14H2.5C1.11929 14 0 12.8807 0 11.5V2.5C0 1.11929 1.11929 0 2.5 0H17.5Z" fill="var(--fill-0, #ED7102)"/>
</svg>
