<svg preserveAspectRatio="none" width="100%" height="100%" overflow="visible" style="display: block;" viewBox="0 0 14.5 13" fill="none" xmlns="http://www.w3.org/2000/svg">
<path id="Union" d="M3.14645 0.146447C3.34171 -0.0488156 3.65822 -0.0488155 3.85348 0.146447C4.04874 0.341709 4.04874 0.658216 3.85348 0.853478L1.70699 2.99996H9.49996C12.2614 2.99996 14.5 5.23854 14.5 7.99996C14.5 10.7614 12.2614 13 9.49996 13H7.49996C7.22382 13 6.99996 12.7761 6.99996 12.5C6.99996 12.2238 7.22382 12 7.49996 12H9.49996C11.7091 12 13.5 10.2091 13.5 7.99996C13.5 5.79082 11.7091 3.99996 9.49996 3.99996H1.70699L3.85348 6.14645C4.04874 6.34171 4.04874 6.65822 3.85348 6.85348C3.65822 7.04874 3.34171 7.04874 3.14645 6.85348L0.146447 3.85348C-0.0488155 3.65822 -0.0488156 3.34171 0.146447 3.14645L3.14645 0.146447Z" fill="var(--fill-0, #ED7102)"/>
</svg>
