<svg preserveAspectRatio="none" width="100%" height="100%" overflow="visible" style="display: block;" viewBox="0 0 15 19" fill="none" xmlns="http://www.w3.org/2000/svg">
<path id="Union" d="M10.5977 0.00976562C10.6939 0.0289362 10.7831 0.0760807 10.8535 0.146484L14.8535 4.14648C14.9473 4.24025 15 4.36739 15 4.5V16.5C15 17.8807 13.8807 19 12.5 19H4.5C3.11929 19 2 17.8807 2 16.5V15.5C2 15.2239 2.22386 15 2.5 15C2.77614 15 3 15.2239 3 15.5V16.5C3 17.3284 3.67157 18 4.5 18H12.5C13.3284 18 14 17.3284 14 16.5V5H12.5C11.1193 5 10 3.88071 10 2.5V1H4.5C3.67157 1 3 1.67157 3 2.5V7.5C3 7.77614 2.77614 8 2.5 8C2.22386 8 2 7.77614 2 7.5V2.5C2 1.11929 3.11929 0 4.5 0H10.5L10.5977 0.00976562ZM2 9C2.82843 9 3.5 9.67157 3.5 10.5C3.5 11.3284 2.82843 12 2 12H1V13.5C1 13.7761 0.776142 14 0.5 14C0.223858 14 0 13.7761 0 13.5V9.5C0 9.22386 0.223858 9 0.5 9H2ZM6 9C6.82843 9 7.5 9.67157 7.5 10.5V12.5C7.5 13.3284 6.82843 14 6 14H4.5C4.22386 14 4 13.7761 4 13.5V9.5C4 9.22386 4.22386 9 4.5 9H6ZM11 9C11.2761 9 11.5 9.22386 11.5 9.5C11.5 9.77614 11.2761 10 11 10H9.5C9.22386 10 9 10.2239 9 10.5V11H10.5C10.7761 11 11 11.2239 11 11.5C11 11.7761 10.7761 12 10.5 12H9V13.5C9 13.7761 8.77614 14 8.5 14C8.22386 14 8 13.7761 8 13.5V10.5C8 9.67157 8.67157 9 9.5 9H11ZM5 13H6C6.27614 13 6.5 12.7761 6.5 12.5V10.5C6.5 10.2239 6.27614 10 6 10H5V13ZM1 11H2C2.27614 11 2.5 10.7761 2.5 10.5C2.5 10.2239 2.27614 10 2 10H1V11ZM11 2.5C11 3.32843 11.6716 4 12.5 4H13.293L11 1.70703V2.5Z" fill="var(--fill-0, #ED7102)"/>
</svg>
