<svg preserveAspectRatio="none" width="100%" height="100%" overflow="visible" style="display: block;" viewBox="0 0 13.0658 17" fill="none" xmlns="http://www.w3.org/2000/svg">
<path id="Union" d="M9.2516 0C9.90205 0 10.3798 0.611164 10.2223 1.24219L9.77504 3.03027C10.2104 3.13848 10.5328 3.53116 10.5328 4V5C10.5328 5.39177 10.3072 5.72951 9.97914 5.89355L12.6383 11.2109C13.9265 13.7874 12.152 16.805 9.33656 16.9912L9.06117 17H4.00453C1.12449 16.9994 -0.78025 14.0631 0.312144 11.4619L0.427379 11.2109L3.08558 5.89355C2.78708 5.7438 2.57309 5.44984 2.53773 5.10254L2.53285 5V4C2.53285 3.53175 2.85516 3.13906 3.28968 3.03027L2.84339 1.24219C2.6958 0.650698 3.10629 0.0763874 3.69398 0.00683594L3.8141 0H9.2516ZM1.32191 11.6582C0.324836 13.6526 1.77492 15.9994 4.00453 16H9.06117C11.2911 15.9997 12.7411 13.6528 11.7438 11.6582L8.91468 6H4.15101L1.32191 11.6582ZM3.53285 5H9.53285V4H3.53285V5ZM4.3141 3H8.7516L9.2516 1H3.8141L4.3141 3Z" fill="var(--fill-0, #161513)"/>
</svg>
