<svg preserveAspectRatio="none" width="100%" height="100%" overflow="visible" style="display: block;" viewBox="0 0 18 17" fill="none" xmlns="http://www.w3.org/2000/svg">
<path id="Union" d="M2.625 3C2.90114 3 3.125 3.22386 3.125 3.5C3.125 3.77614 2.90114 4 2.625 4H2.5C1.67157 4 1 4.67157 1 5.5V14.5C1 15.3284 1.67157 16 2.5 16H15.5C16.3284 16 17 15.3284 17 14.5V5.5C17 4.67157 16.3284 4 15.5 4H15.375C15.0989 4 14.875 3.77614 14.875 3.5C14.875 3.22386 15.0989 3 15.375 3H15.5C16.8807 3 18 4.11929 18 5.5V14.5C18 15.8807 16.8807 17 15.5 17H2.5C1.11929 17 4.0266e-08 15.8807 0 14.5V5.5C0 4.11929 1.11929 3 2.5 3H2.625ZM6.57422 0C7.32716 0.000112432 8.02095 0.408276 8.38672 1.06641L9 2.16992L9.61328 1.06641C9.97905 0.408276 10.6728 0.000112432 11.4258 0H11.5C12.6046 3.22133e-08 13.5 0.895431 13.5 2C13.5 3.10457 12.6046 4 11.5 4H10.1172C10.6138 4.64358 11.2102 5.20653 11.8906 5.66016L13.2773 6.58398C13.5071 6.73716 13.5692 7.04758 13.416 7.27734C13.2628 7.50711 12.9524 7.56919 12.7227 7.41602L11.3359 6.49219C10.4095 5.87451 9.61761 5.08047 8.99902 4.16016C8.38063 5.08016 7.59023 5.87471 6.66406 6.49219L5.27734 7.41602C5.04758 7.56919 4.73716 7.50711 4.58398 7.27734C4.43081 7.04758 4.49289 6.73716 4.72266 6.58398L6.10938 5.66016C6.78977 5.20653 7.38625 4.64358 7.88281 4H6.5C5.39543 4 4.5 3.10457 4.5 2C4.5 0.895431 5.39543 3.22129e-08 6.5 0H6.57422ZM6.5 1C5.94772 1 5.5 1.44772 5.5 2C5.5 2.55228 5.94772 3 6.5 3H8.31641L7.5127 1.55273C7.32334 1.2119 6.96411 1.00011 6.57422 1H6.5ZM11.4258 1C11.0359 1.00011 10.6767 1.2119 10.4873 1.55273L9.68359 3H11.5C12.0523 3 12.5 2.55228 12.5 2C12.5 1.44772 12.0523 1 11.5 1H11.4258Z" fill="var(--fill-0, #ED7102)"/>
</svg>
