<svg preserveAspectRatio="none" width="100%" height="100%" overflow="visible" style="display: block;" viewBox="0 0 15 17" fill="none" xmlns="http://www.w3.org/2000/svg">
<path id="Union" d="M4.08398 0.222678C4.23716 -0.00704785 4.54759 -0.069141 4.77734 0.0840063L7.77734 2.08401C8.0071 2.23717 8.06916 2.5476 7.91602 2.77737L5.91602 5.77737C5.76284 6.00713 5.45242 6.06921 5.22266 5.91604C4.99291 5.76286 4.93081 5.45243 5.08398 5.22268L6.51562 3.07424C3.39292 3.54865 1.00003 6.24484 1 9.50002C1 13.0899 3.91015 16 7.5 16C11.0899 16 14 13.0899 14 9.50002C14 9.2239 14.2239 9.00002 14.5 9.00002C14.7761 9.00002 15 9.2239 15 9.50002C15 13.6422 11.6421 17 7.5 17C3.35786 17 0 13.6422 0 9.50002C2.53126e-05 5.85135 2.60571 2.81222 6.05762 2.13967L4.22266 0.916038C3.99291 0.762856 3.93081 0.452434 4.08398 0.222678Z" fill="var(--fill-0, #ED7102)"/>
</svg>
