<svg preserveAspectRatio="none" width="100%" height="100%" overflow="visible" style="display: block;" viewBox="0 0 19 19" fill="none" xmlns="http://www.w3.org/2000/svg">
<path id="Union" d="M9.5 0C12.1216 0 14.4965 1.06252 16.2148 2.7793C17.9352 4.49814 19 6.87529 19 9.5C19 14.7467 14.7467 19 9.5 19C6.87529 19 4.49814 17.9352 2.7793 16.2148C1.06252 14.4965 0 12.1216 0 9.5C0 4.25329 4.25329 0 9.5 0ZM3.85156 15.8486C5.35373 17.1862 7.33082 18 9.5 18C14.1944 18 18 14.1944 18 9.5C18 7.33082 17.1862 5.35373 15.8486 3.85156L3.85156 15.8486ZM9.5 1C4.80558 1 1 4.80558 1 9.5C1 11.6657 1.8108 13.6403 3.14453 15.1416L15.1416 3.14453C13.6403 1.8108 11.6657 1 9.5 1Z" fill="var(--fill-0, #ED7102)"/>
</svg>
