<svg preserveAspectRatio="none" width="100%" height="100%" overflow="visible" style="display: block;" viewBox="0 0 20 14" fill="none" xmlns="http://www.w3.org/2000/svg">
<path id="Union" d="M18.2041 0.0107422C19.2128 0.113005 20 0.96435 20 2V12C20 13.0357 19.2128 13.887 18.2041 13.9893L18 14H2C0.96435 14 0.113005 13.2128 0.0107422 12.2041L0 12V2C0 0.895431 0.895431 1.61064e-08 2 0H18L18.2041 0.0107422ZM2 1C1.44772 1 1 1.44772 1 2V12C1 12.5523 1.44772 13 2 13H18C18.5523 13 19 12.5523 19 12V2C19 1.44772 18.5523 1 18 1H2ZM16.1465 3.14648C16.3417 2.95122 16.6583 2.95122 16.8535 3.14648C17.0488 3.34175 17.0488 3.65825 16.8535 3.85352L13.707 7L17.3535 10.6465C17.5488 10.8417 17.5488 11.1583 17.3535 11.3535C17.1583 11.5488 16.8417 11.5488 16.6465 11.3535L13 7.70703L11.7676 8.93945C10.7913 9.91556 9.20869 9.91556 8.23242 8.93945L7 7.70703L3.35352 11.3535C3.15825 11.5488 2.84175 11.5488 2.64648 11.3535C2.45122 11.1583 2.45122 10.8417 2.64648 10.6465L6.29297 7L3.14648 3.85352C2.95122 3.65825 2.95122 3.34175 3.14648 3.14648C3.34175 2.95122 3.65825 2.95122 3.85352 3.14648L8.93945 8.23242C9.5252 8.81801 10.4748 8.81801 11.0605 8.23242L16.1465 3.14648Z" fill="var(--fill-0, #C3C4C5)"/>
</svg>
