<svg preserveAspectRatio="none" width="100%" height="100%" overflow="visible" style="display: block;" viewBox="0 0 19 19" fill="none" xmlns="http://www.w3.org/2000/svg">
<path id="Union" d="M9.5 0C14.7467 0 19 4.25329 19 9.5C19 14.7467 14.7467 19 9.5 19C4.25329 19 0 14.7467 0 9.5C0 4.25329 4.25329 0 9.5 0ZM5.95312 13C5.55541 13.0001 5.17381 13.1582 4.89258 13.4395L3.35352 14.9785C3.28578 15.0463 3.20301 15.0886 3.11621 15.1094C4.67396 16.8808 6.95568 18 9.5 18C12.0441 18 14.3251 16.8805 15.8828 15.1094C15.7964 15.0885 15.714 15.046 15.6465 14.9785L14.1074 13.4395C13.8262 13.1582 13.4446 13.0001 13.0469 13H5.95312ZM9.5 1C4.80558 1 1 4.80558 1 9.5C1 11.3247 1.57704 13.0136 2.55566 14.3984C2.5789 14.3529 2.60838 14.3096 2.64648 14.2715L4.18555 12.7324C4.65432 12.2637 5.29019 12.0001 5.95312 12H13.0469C13.7098 12.0001 14.3457 12.2637 14.8145 12.7324L16.3535 14.2715C16.3915 14.3095 16.4202 14.3531 16.4434 14.3984C17.4222 13.0135 18 11.3249 18 9.5C18 4.80558 14.1944 1 9.5 1ZM9.5 3.5C11.7091 3.5 13.5 5.29086 13.5 7.5C13.5 9.70914 11.7091 11.5 9.5 11.5C7.29086 11.5 5.5 9.70914 5.5 7.5C5.5 5.29086 7.29086 3.5 9.5 3.5ZM9.5 4.5C7.84315 4.5 6.5 5.84315 6.5 7.5C6.5 9.15685 7.84315 10.5 9.5 10.5C11.1569 10.5 12.5 9.15685 12.5 7.5C12.5 5.84315 11.1569 4.5 9.5 4.5Z" fill="var(--fill-0, #C3C4C5)"/>
</svg>
