<svg preserveAspectRatio="none" width="100%" height="100%" overflow="visible" style="display: block;" viewBox="0 0 15 18" fill="none" xmlns="http://www.w3.org/2000/svg">
<g id="Union" filter="url(#filter0_i_0_4122)">
<path d="M12.5 8C13.8807 8 15 9.11929 15 10.5V15.5C15 16.8807 13.8807 18 12.5 18H2.5C1.11929 18 8.05319e-09 16.8807 0 15.5V10.5C0 9.11929 1.11929 8 2.5 8H12.5ZM2.5 9C1.67157 9 1 9.67157 1 10.5V15.5C1 16.3284 1.67157 17 2.5 17H12.5C13.3284 17 14 16.3284 14 15.5V10.5C14 9.67157 13.3284 9 12.5 9H2.5ZM7.5 10.5C8.60457 10.5 9.5 11.3954 9.5 12.5C9.5 13.4316 8.8622 14.2113 8 14.4336V15C8 15.2761 7.77614 15.5 7.5 15.5C7.22386 15.5 7 15.2761 7 15V14.4336C6.1378 14.2113 5.5 13.4316 5.5 12.5C5.5 11.3954 6.39543 10.5 7.5 10.5ZM7.5 11.5C6.94772 11.5 6.5 11.9477 6.5 12.5C6.5 13.0523 6.94772 13.5 7.5 13.5C8.05228 13.5 8.5 13.0523 8.5 12.5C8.5 11.9477 8.05228 11.5 7.5 11.5ZM7.5 0C9.70914 0 11.5 1.79086 11.5 4V5.5C11.5 5.77614 11.2761 6 11 6C10.7239 6 10.5 5.77614 10.5 5.5V4C10.5 2.34315 9.15685 1 7.5 1C5.84315 1 4.5 2.34315 4.5 4V5.5C4.5 5.77614 4.27614 6 4 6C3.72386 6 3.5 5.77614 3.5 5.5V4C3.5 1.79086 5.29086 0 7.5 0Z" fill="var(--fill-0, #ED7102)"/>
</g>
<defs>
<filter id="filter0_i_0_4122" x="0" y="0" width="15" height="18" filterUnits="userSpaceOnUse" color-interpolation-filters="sRGB">
<feFlood flood-opacity="0" result="BackgroundImageFix"/>
<feBlend mode="normal" in="SourceGraphic" in2="BackgroundImageFix" result="shape"/>
<feColorMatrix in="SourceAlpha" type="matrix" values="0 0 0 0 0 0 0 0 0 0 0 0 0 0 0 0 0 0 127 0" result="hardAlpha"/>
<feOffset dx="-8" dy="-4"/>
<feComposite in2="hardAlpha" operator="arithmetic" k2="-1" k3="1"/>
<feColorMatrix type="matrix" values="0 0 0 0 0 0 0 0 0 0 0 0 0 0 0 0 0 0 0.1 0"/>
<feBlend mode="normal" in2="shape" result="effect1_innerShadow_0_4122"/>
</filter>
</defs>
</svg>
