<svg preserveAspectRatio="none" width="100%" height="100%" overflow="visible" style="display: block;" viewBox="0 0 18.5 17.5" fill="none" xmlns="http://www.w3.org/2000/svg">
<path id="Union" d="M11.0547 4.5C11.3306 4.50026 11.5547 4.72402 11.5547 5V5.52246C13.9883 5.75072 15.9526 7.62418 16.4385 9.90332C16.635 10.8265 15.8465 11.4997 15.0547 11.5H11.5547V16.5H18C18.2761 16.5 18.5 16.7239 18.5 17C18.5 17.2761 18.2761 17.5 18 17.5H1C0.723858 17.5 0.5 17.2761 0.5 17C0.5 16.7239 0.723858 16.5 1 16.5H10.5547V11.5H7.05469C6.26272 11.5 5.47423 10.8267 5.6709 9.90332C6.15687 7.62407 8.12092 5.75052 10.5547 5.52246V5C10.5547 4.72386 10.7785 4.5 11.0547 4.5ZM6 0C6.27614 0 6.5 0.223858 6.5 0.5V2.3916C7.20054 2.48785 7.83725 2.78356 8.35156 3.21875L9.5752 1.99609C9.77047 1.80095 10.087 1.80087 10.2822 1.99609C10.4774 2.19132 10.4774 2.50786 10.2822 2.70312L8.71094 4.27441C8.6134 4.37195 8.47966 4.42513 8.3418 4.4209C8.20387 4.4166 8.07375 4.3554 7.98242 4.25195C7.49742 3.70245 6.78928 3.35742 6 3.35742C5.21072 3.35742 4.50258 3.70245 4.01758 4.25195C3.60613 4.71814 3.35742 5.32942 3.35742 6C3.35742 6.78928 3.70245 7.49742 4.25195 7.98242C4.3554 8.07375 4.4166 8.20387 4.4209 8.3418C4.42513 8.47966 4.37195 8.6134 4.27441 8.71094L2.4248 10.5605C2.22954 10.7556 1.91298 10.7557 1.71777 10.5605C1.52256 10.3653 1.52267 10.0488 1.71777 9.85352L3.21875 8.35156C2.78359 7.83729 2.48885 7.20049 2.39258 6.5H0.5C0.223858 6.5 0 6.27614 0 6C0 5.72386 0.223858 5.5 0.5 5.5H2.3916C2.46896 4.93708 2.6766 4.41615 2.98047 3.96582L1.71777 2.70312C1.52264 2.50786 1.52257 2.19132 1.71777 1.99609C1.913 1.80087 2.22953 1.80095 2.4248 1.99609L3.64746 3.21875C4.16187 2.7833 4.7992 2.48789 5.5 2.3916V0.5C5.5 0.223858 5.72386 0 6 0ZM11.0547 6.5C8.8957 6.5 7.07537 8.10924 6.64844 10.1113C6.62792 10.2075 6.65462 10.2924 6.72168 10.3643C6.79396 10.4413 6.91368 10.5 7.05469 10.5H15.0547C15.1956 10.4999 15.3155 10.4414 15.3877 10.3643C15.4546 10.2925 15.4814 10.2074 15.4609 10.1113C15.0341 8.10934 13.2135 6.50024 11.0547 6.5Z" fill="var(--fill-0, #ED7102)"/>
</svg>
