<svg preserveAspectRatio="none" width="100%" height="100%" overflow="visible" style="display: block;" viewBox="0 0 18 13" fill="none" xmlns="http://www.w3.org/2000/svg">
<path id="Union" d="M16 0C17.1046 0 18 0.895431 18 2V11C18 12.0357 17.2128 12.887 16.2041 12.9893L16 13H2L1.7959 12.9893C0.854346 12.8938 0.1062 12.1457 0.0107422 11.2041L0 11V2C0 0.895431 0.895431 8.05319e-09 2 0H16ZM2 1C1.44772 1 1 1.44772 1 2V11C1 11.5523 1.44772 12 2 12H16C16.5523 12 17 11.5523 17 11V2C17 1.44772 16.5523 1 16 1H2ZM14.5 3C14.7761 3 15 3.22386 15 3.5C15 3.77614 14.7761 4 14.5 4H3.5C3.22386 4 3 3.77614 3 3.5C3 3.22386 3.22386 3 3.5 3H14.5Z" fill="var(--fill-0, #ED7102)"/>
</svg>
