<svg preserveAspectRatio="none" width="100%" height="100%" overflow="visible" style="display: block;" viewBox="0 0 20.7986 13.3433" fill="none" xmlns="http://www.w3.org/2000/svg">
<path id="Union" d="M3.68153 2.78247C7.39149 -0.927502 13.4071 -0.927475 17.1171 2.78247L20.6522 6.3186C20.8474 6.51387 20.8475 6.83039 20.6522 7.02563L17.1171 10.5608C13.4071 14.2708 7.39151 14.2708 3.68153 10.5608L0.146371 7.02563C-0.0488407 6.83042 -0.0487399 6.51387 0.146371 6.3186L3.68153 2.78247ZM16.41 3.4895C13.0906 0.17008 7.708 0.170054 4.38856 3.4895L1.20692 6.67211L4.38856 9.85375C7.70801 13.1732 13.0906 13.1732 16.41 9.85375L19.5917 6.67211L16.41 3.4895ZM10.3993 2.17211C12.8846 2.17211 14.8993 4.18683 14.8993 6.67211C14.8991 9.15726 12.8845 11.1721 10.3993 11.1721C7.91412 11.1721 5.89946 9.15726 5.8993 6.67211C5.8993 4.18683 7.91402 2.17211 10.3993 2.17211ZM10.3993 3.17211C8.4663 3.17211 6.8993 4.73912 6.8993 6.67211C6.89946 8.60497 8.4664 10.1721 10.3993 10.1721C12.3322 10.1721 13.8991 8.60497 13.8993 6.67211C13.8993 4.73912 12.3323 3.17211 10.3993 3.17211Z" fill="var(--fill-0, #ED7102)"/>
</svg>
