<svg preserveAspectRatio="none" width="100%" height="100%" overflow="visible" style="display: block;" viewBox="0 0 117.527 111.223" fill="none" xmlns="http://www.w3.org/2000/svg">
<g id="Confetti">
<path id="Depth (Stroke)" d="M28.9043 90.708C31.3842 89.4625 34.3324 89.591 36.6943 91.0479C39.0562 92.5047 40.495 95.0814 40.4951 97.8564V101.435C40.4951 104.46 38.7882 107.225 36.085 108.583L32.5234 110.372C30.0436 111.618 27.0953 111.489 24.7334 110.032C22.3715 108.575 20.9328 105.999 20.9326 103.224V99.6455C20.9326 96.6205 22.6395 93.8537 25.3428 92.4961L28.9043 90.708ZM28.9326 99.6455V103.224L32.4951 101.435V97.8564L28.9326 99.6455ZM111.52 89.9248C113.43 88.8164 115.878 89.467 116.986 91.3779C118.095 93.2889 117.444 95.7363 115.533 96.8447L110.19 99.9434C108.279 101.052 105.832 100.401 104.724 98.4902C103.615 96.5793 104.266 94.1318 106.177 93.0234L111.52 89.9248ZM76.1348 39.252C76.1348 37.0428 77.9256 35.252 80.1348 35.252C82.3437 35.2522 84.1348 37.043 84.1348 39.252C84.1348 41.5688 83.4669 43.935 81.6846 45.7197C79.9017 47.5049 77.5393 48.1709 75.2363 48.1709C73.0274 48.1707 71.2363 46.3799 71.2363 44.1709C71.2365 41.962 73.0275 40.1711 75.2363 40.1709C75.6997 40.1709 75.9264 40.0975 76.0156 40.0576C76.0568 39.967 76.1348 39.7337 76.1348 39.252ZM49.4131 24.5186C51.6221 24.5186 53.4128 26.3096 53.4131 28.5186V33.457C53.413 34.8874 52.6496 36.2089 51.4102 36.9229C50.9943 37.1624 50.5456 37.3191 50.0869 37.3975C49.5541 38.9806 48.0596 40.1211 46.2969 40.1211C44.0877 40.1211 42.2969 38.3302 42.2969 36.1211V31.6494C42.2969 30.2191 43.0605 28.8977 44.2998 28.1836C44.6758 27.967 45.0785 27.8163 45.4912 27.7314C45.857 25.8996 47.4737 24.5187 49.4131 24.5186ZM0 29.8604C0.000154453 24.9696 3.96061 20.9414 8.89746 20.9414C11.1066 20.9414 12.8975 22.7323 12.8975 24.9414C12.8974 27.1505 11.1066 28.9414 8.89746 28.9414C8.42489 28.9414 8.00016 29.3417 8 29.8604C8 32.0695 6.20914 33.8604 4 33.8604C1.79086 33.8604 0 32.0695 0 29.8604ZM77.2754 0C80.0208 9.0108e-05 82.5745 1.40794 84.04 3.72949L87.125 8.61719C88.6807 11.0818 88.7733 14.1977 87.3662 16.75C85.959 19.3024 83.2749 20.8877 80.3604 20.8877H74.1895C71.275 20.8876 68.5907 19.3023 67.1836 16.75C65.7766 14.1977 65.8691 11.0817 67.4248 8.61719L70.5098 3.72949L70.6504 3.51465C72.1352 1.32121 74.6155 -1.84775e-06 77.2754 0ZM74.1895 12.8877H80.3604L77.2754 8L74.1895 12.8877Z" fill="var(--fill-0, white)"/>
<path id="Vector 932" d="M108.184 96.4837L113.527 93.3847M46.2968 36.1215V31.6495L49.4134 33.4568V28.519M4 29.8606C4 27.1558 6.1927 24.9414 8.89753 24.9414M75.2367 44.1712C78.3534 44.1712 80.1343 42.4033 80.1343 39.2519M28.9329 103.223V99.6456L32.4947 97.8568V101.434L28.9329 103.223ZM80.3604 12.8878L77.2751 8L74.1898 12.8878H80.3604Z" stroke="var(--stroke-0, #161513)" stroke-width="2" stroke-linecap="round" stroke-linejoin="round" stroke-dasharray="0.1 0.1"/>
</g>
</svg>
