<svg preserveAspectRatio="none" width="100%" height="100%" overflow="visible" style="display: block;" viewBox="0 0 75.9081 70.8696" fill="none" xmlns="http://www.w3.org/2000/svg">
<g id="Shadow">
<mask id="mask0_0_270" style="mask-type:alpha" maskUnits="userSpaceOnUse" x="0" y="0" width="76" height="71">
<path id="Cup" d="M1 5C1 2.79086 2.79086 1 5 1H70.9081C73.1173 1 74.9081 2.79086 74.9081 5V8.17717C74.9081 8.71874 74.691 9.23772 74.3054 9.61798C71.2204 12.6601 69.4837 16.8119 69.4837 21.1445V38.34C69.4837 55.7533 55.3674 69.8696 37.9541 69.8696C20.5407 69.8696 6.42445 55.7533 6.42445 38.34V21.1445C6.42445 16.8119 4.68768 12.6601 1.60272 9.61798C1.2171 9.23772 1 8.71874 1 8.17717V5Z" fill="var(--fill-0, white)" stroke="var(--stroke-0, #161513)" stroke-width="2"/>
</mask>
<g mask="url(#mask0_0_270)">
<path id="Cup_2" d="M61.251 -7C68.7936 -7 74.9082 -0.885405 74.9082 6.65723C74.9082 10.3124 73.4425 13.8154 70.8398 16.3818L69.8135 17.3945C69.6028 17.6023 69.4835 17.8858 69.4834 18.1816V38.3398C69.4834 60.1714 51.7857 77.8691 29.9541 77.8691C8.12251 77.8691 -9.5752 60.1714 -9.5752 38.3398V18.1816C-9.57525 17.8858 -9.69459 17.6023 -9.90527 17.3945L-10.9326 16.3818C-13.4539 13.8955 -14.9078 10.5301 -14.9961 6.99902L-15 6.65723L-14.9951 6.30469C-14.8082 -1.07504 -8.76757 -7 -1.34277 -7H61.251Z" stroke="var(--stroke-0, #222222)" stroke-opacity="0.08" stroke-width="16" stroke-linecap="round" stroke-linejoin="round"/>
</g>
</g>
</svg>
