<svg preserveAspectRatio="none" width="100%" height="100%" overflow="visible" style="display: block;" viewBox="0 0 65.0035 65.2919" fill="none" xmlns="http://www.w3.org/2000/svg">
<g id="Shadow">
<mask id="mask0_0_266" style="mask-type:alpha" maskUnits="userSpaceOnUse" x="13" y="14" width="36" height="37">
<path id="Star 32" d="M24.989 19.2481C25.1913 15.3714 30.2337 14.0143 32.3387 17.27L34.5556 20.699C35.4968 22.1547 37.269 22.8354 38.944 22.3846L42.9071 21.318C46.6453 20.3119 49.4794 24.6759 47.0472 27.6928L44.4446 30.921C43.3586 32.2681 43.2584 34.1595 44.1963 35.6102L46.4377 39.0769C48.5409 42.33 45.2503 46.3843 41.6373 44.9913L37.8444 43.5289C36.2242 42.9042 34.3845 43.3993 33.2923 44.754L30.7356 47.9253C28.3001 50.9463 23.4321 49.0878 23.6342 45.2142L23.8496 41.0863C23.9397 39.3589 22.9114 37.7712 21.3003 37.15L17.4394 35.6614C13.8312 34.2702 14.1133 29.0675 17.8515 28.0614L21.8146 26.9948C23.4896 26.544 24.6855 25.0644 24.776 23.331L24.989 19.2481Z" fill="var(--fill-0, white)" stroke="var(--stroke-0, #161513)" stroke-width="2"/>
</mask>
<g mask="url(#mask0_0_266)">
<path id="Star 33" d="M9.08323 20.1334C11.1535 9.68765 24.632 6.0604 31.6248 14.0666C42.2468 12.7786 49.7121 24.5668 44.3045 33.6745C48.6907 43.2432 40.0987 54.2765 29.6303 51.8732C21.7608 59.2109 8.82775 53.9714 7.86297 43.4823C-1.35283 38.3104 -0.755566 24.3529 9.08323 20.1334Z" stroke="var(--stroke-0, #222222)" stroke-opacity="0.08" stroke-width="16" stroke-linecap="round" stroke-linejoin="round"/>
</g>
</g>
</svg>
