<svg preserveAspectRatio="none" width="100%" height="100%" overflow="visible" style="display: block;" viewBox="0 0 41.978 40.7581" fill="none" xmlns="http://www.w3.org/2000/svg">
<path id="Depth" d="M15.2804 6.15236C17.0724 0.615928 24.9054 0.615939 26.6974 6.15236L27.9552 10.0401C28.2224 10.865 28.9914 11.4238 29.8585 11.4238H33.963C39.7695 11.4242 42.1896 18.8499 37.4982 22.2715L34.1515 24.7119C33.4532 25.2212 33.1607 26.1221 33.4269 26.9443L34.6994 30.874C36.4899 36.406 30.153 40.9956 25.4552 37.5693L22.1671 35.1719C21.4649 34.6598 20.5129 34.6598 19.8107 35.1719L16.5226 37.5693C11.8248 40.9956 5.48791 36.406 7.27846 30.874L8.55092 26.9443C8.81707 26.1221 8.5246 25.2212 7.82631 24.7119L4.47963 22.2715C-0.211859 18.8498 2.20901 11.4238 8.01576 11.4238H12.1193C12.9864 11.4238 13.7554 10.865 14.0226 10.0401L15.2804 6.15236Z" stroke="var(--stroke-0, white)" stroke-width="4"/>
</svg>
