<svg preserveAspectRatio="none" width="100%" height="100%" overflow="visible" style="display: block;" viewBox="0 0 35.9664 34.7445" fill="none" xmlns="http://www.w3.org/2000/svg">
<path id="Star 31" d="M14.1776 3.76821C15.3723 0.0772606 20.5942 0.077265 21.7888 3.76821L23.047 7.65548C23.5812 9.30575 25.1181 10.4237 26.8527 10.4237L30.9568 10.4237C34.828 10.4237 36.4416 15.3743 33.3139 17.6555L29.9672 20.0963C28.5706 21.1149 27.9863 22.9153 28.5186 24.5599L29.7907 28.49C30.9844 32.178 26.7599 35.2377 23.628 32.9536L20.3403 30.5557C18.9358 29.5314 17.0306 29.5314 15.6262 30.5557L12.3384 32.9536C9.20655 35.2377 4.98204 32.178 6.17574 28.49L7.44783 24.5599C7.98014 22.9153 7.39584 21.1149 5.99926 20.0963L2.65256 17.6555C-0.475135 15.3743 1.13842 10.4237 5.0096 10.4237L9.11378 10.4237C10.8483 10.4237 12.3852 9.30575 12.9194 7.65548L14.1776 3.76821Z" fill="var(--fill-0, white)" stroke="var(--stroke-0, #161513)" stroke-width="2"/>
</svg>
